<?xml version="1.0" standalone="no"?>
<!DOCTYPE svg PUBLIC "-//W3C//DTD SVG 20010904//EN"
 "http://www.w3.org/TR/2001/REC-SVG-20010904/DTD/svg10.dtd">
<svg version="1.0" xmlns="http://www.w3.org/2000/svg"
 width="260.000000pt" height="260.000000pt" viewBox="0 0 260.000000 260.000000"
 preserveAspectRatio="xMidYMid meet">
<metadata>
Created by potrace 1.11, written by Peter Selinger 2001-2013
</metadata>
<g transform="translate(0.000000,260.000000) scale(0.100000,-0.100000)"
fill="#000000" stroke="none">
<path d="M260 2470 l0 -130 130 0 130 0 0 -130 0 -130 -260 0 -260 0 0 -1040
0 -1040 260 0 260 0 0 130 0 130 -130 0 -130 0 0 520 0 520 260 0 260 0 0 390
0 390 520 0 520 0 0 -390 0 -390 260 0 260 0 0 -520 0 -520 -130 0 -130 0 0
-130 0 -130 260 0 260 0 0 1040 0 1040 -260 0 -260 0 0 130 0 130 130 0 130 0
0 130 0 130 -1040 0 -1040 0 0 -130z"/>
<path d="M1040 1300 l0 -260 -130 0 -130 0 0 -130 0 -130 130 0 130 0 0 130 0
130 260 0 260 0 0 -130 0 -130 130 0 130 0 0 130 0 130 -130 0 -130 0 0 260 0
260 -260 0 -260 0 0 -260z"/>
<path d="M780 260 l0 -260 520 0 520 0 0 260 0 260 -520 0 -520 0 0 -260z"/>
</g>
</svg>
